<svg xmlns="http://www.w3.org/2000/svg"  viewBox="0 0 48 48" width="48px" height="48px"><path d="M 17 3 C 12.599415 3 9 6.599415 9 11 C 9 13.744345 10.486365 16.057521 12.607422 17.5 C 10.486365 18.942479 9 21.255655 9 24 C 9 25.473215 9.4029703 26.865361 10.103516 28.054688 A 1.50015 1.50015 0 1 0 12.6875 26.533203 C 12.250045 25.790529 12 24.930785 12 24 C 12 21.220585 14.220585 19 17 19 L 23 19 L 23 29 L 17.5 29 L 17 29 A 1.50015 1.50015 0 0 0 16.103516 29.283203 C 12.112612 29.976713 9 33.317974 9 37.5 C 9 42.176657 12.823343 46 17.5 46 C 22.176657 46 26 42.176657 26 37.5 L 26 30.5 L 26 29.892578 C 27.442479 32.013635 29.755655 33.5 32.5 33.5 A 1.50015 1.50015 0 1 0 32.5 30.5 C 29.720585 30.5 27.5 28.279415 27.5 25.5 C 27.5 22.720585 29.720585 20.5 32.5 20.5 C 35.279415 20.5 37.5 22.720585 37.5 25.5 C 37.5 26.708662 37.079269 27.799549 36.373047 28.662109 A 1.50015 1.50015 0 1 0 38.693359 30.5625 C 39.821138 29.185061 40.5 27.413338 40.5 25.5 C 40.5 22.159425 38.418465 19.300522 35.494141 18.107422 C 38.13333 16.796439 40 14.133067 40 11 C 40 9.6054095 39.639139 8.2825365 39.005859 7.1367188 A 1.50015 1.50015 0 1 0 36.380859 8.5878906 C 36.775579 9.3020729 37 10.118591 37 11 C 37 13.779415 34.779415 16 32 16 L 26 16 L 26 6 L 32 6 A 1.50015 1.50015 0 1 0 32 3 L 24.5 3 L 17 3 z M 17 6 L 23 6 L 23 16 L 17 16 C 14.220585 16 12 13.779415 12 11 C 12 8.220585 14.220585 6 17 6 z M 26 19 L 28.107422 19 C 27.266444 19.571929 26.571929 20.266444 26 21.107422 L 26 19 z M 17.5 32 L 23 32 L 23 37.5 C 23 40.555343 20.555343 43 17.5 43 C 14.444657 43 12 40.555343 12 37.5 C 12 34.444657 14.444657 32 17.5 32 z"/></svg>