<svg xmlns="http://www.w3.org/2000/svg" x="0px" y="0px" width="24" height="48" viewBox="0 0 48 48">
    <path
        d="M 11.5 6 C 8.4802259 6 6 8.4802259 6 11.5 L 6 18.064453 A 1.50015 1.50015 0 1 0 9 18.064453 L 9 11.5 C 9 10.101774 10.101774 9 11.5 9 L 36.5 9 C 37.898226 9 39 10.101774 39 11.5 L 39 22.830078 A 1.50015 1.50015 0 1 0 42 22.830078 L 42 11.5 C 42 8.4802259 39.519774 6 36.5 6 L 11.5 6 z M 20.96875 15 A 1.50015 1.50015 0 0 0 19.5625 16.068359 L 15.0625 31.068359 A 1.5009065 1.5009065 0 1 0 17.9375 31.931641 L 18.517578 30 L 23.482422 30 L 24.0625 31.931641 A 1.5009065 1.5009065 0 1 0 26.9375 31.068359 L 22.4375 16.068359 A 1.50015 1.50015 0 0 0 20.96875 15 z M 30.5 16.5 A 2 2 0 0 0 30.5 20.5 A 2 2 0 0 0 30.5 16.5 z M 21 21.722656 L 22.582031 27 L 19.417969 27 L 21 21.722656 z M 30.476562 21.978516 A 1.50015 1.50015 0 0 0 29 23.5 L 29 31.5 A 1.50015 1.50015 0 1 0 32 31.5 L 32 23.5 A 1.50015 1.50015 0 0 0 30.476562 21.978516 z M 7.4765625 24.478516 A 1.50015 1.50015 0 0 0 6 26 L 6 36.5 C 6 39.519774 8.4802259 42 11.5 42 L 36.5 42 C 39.519774 42 42 39.519774 42 36.5 L 42 31.5 A 1.50015 1.50015 0 1 0 39 31.5 L 39 36.5 C 39 37.898226 37.898226 39 36.5 39 L 11.5 39 C 10.101774 39 9 37.898226 9 36.5 L 9 26 A 1.50015 1.50015 0 0 0 7.4765625 24.478516 z">
    </path>
</svg>