<svg xmlns="http://www.w3.org/2000/svg" x="0px" y="0px" width="24" height="48" viewBox="0 0 48 48"><path d="M 11.5 6 C 8.4802259 6 6 8.4802259 6 11.5 L 6 36.5 C 6 39.519774 8.4802259 42 11.5 42 L 27.925781 42 A 1.50015 1.50015 0 1 0 27.925781 39 L 11.5 39 C 10.101774 39 9 37.898226 9 36.5 L 9 11.5 C 9 10.101774 10.101774 9 11.5 9 L 12.871094 9 A 1.50015 1.50015 0 1 0 12.871094 6 L 11.5 6 z M 19.339844 6 A 1.50015 1.50015 0 1 0 19.339844 9 L 36.5 9 C 37.898226 9 39 10.101774 39 11.5 L 39 36.5 C 39 37.898226 37.898226 39 36.5 39 L 33.798828 39 A 1.50015 1.50015 0 1 0 33.798828 42 L 36.5 42 C 39.519774 42 42 39.519774 42 36.5 L 42 11.5 C 42 8.4802259 39.519774 6 36.5 6 L 19.339844 6 z M 18.476562 14.978516 A 1.50015 1.50015 0 0 0 17 16.5 L 17 31.5 A 1.50015 1.50015 0 1 0 20 31.5 L 20 16.5 A 1.50015 1.50015 0 0 0 18.476562 14.978516 z M 30.476562 14.978516 A 1.50015 1.50015 0 0 0 29 16.5 L 29 21 L 28 21 C 24.704135 21 22 23.704135 22 27 C 22 30.295865 24.704135 33 28 33 L 30.5 33 A 1.50015 1.50015 0 0 0 32 31.5 L 32 22.746094 A 1.50015 1.50015 0 0 0 32 22.259766 L 32 16.5 A 1.50015 1.50015 0 0 0 30.476562 14.978516 z M 28 24 L 29 24 L 29 30 L 28 30 C 26.325865 30 25 28.674135 25 27 C 25 25.325865 26.325865 24 28 24 z"/></svg>