<svg xmlns="http://www.w3.org/2000/svg"  viewBox="0 0 48 48" width="48px" height="48px"><path d="M 11.5 6 C 8.4802259 6 6 8.4802259 6 11.5 L 6 13.978516 A 1.50015 1.50015 0 1 0 9 13.978516 L 9 11.5 C 9 10.101774 10.101774 9 11.5 9 L 36.5 9 C 37.898226 9 39 10.101774 39 11.5 L 39 27 A 1.50015 1.50015 0 1 0 42 27 L 42 11.5 C 42 8.4802259 39.519774 6 36.5 6 L 11.5 6 z M 16.476562 14.978516 A 1.50015 1.50015 0 0 0 15 16.5 L 15 31.5 A 1.50015 1.50015 0 0 0 16.5 33 L 23.5 33 A 1.50015 1.50015 0 1 0 23.5 30 L 18 30 L 18 16.5 A 1.50015 1.50015 0 0 0 16.476562 14.978516 z M 7.4765625 18.457031 A 1.50015 1.50015 0 0 0 6 19.978516 L 6 36.5 C 6 39.519774 8.4802259 42 11.5 42 L 36.5 42 C 39.519774 42 42 39.519774 42 36.5 L 42 34.339844 A 1.50015 1.50015 0 1 0 39 34.339844 L 39 36.5 C 39 37.898226 37.898226 39 36.5 39 L 11.5 39 C 10.101774 39 9 37.898226 9 36.5 L 9 19.978516 A 1.50015 1.50015 0 0 0 7.4765625 18.457031 z M 28.476562 20.978516 A 1.50015 1.50015 0 0 0 27 22.5 L 27 26.5 L 27 31.5 A 1.50015 1.50015 0 1 0 30 31.5 L 30 26.5 C 30 25.101774 31.101774 24 32.5 24 L 33.5 24 A 1.50015 1.50015 0 1 0 33.5 21 L 32.5 21 C 31.515166 21 30.63673 21.334646 29.833984 21.794922 A 1.50015 1.50015 0 0 0 28.476562 20.978516 z"/></svg>