<svg xmlns="http://www.w3.org/2000/svg"  viewBox="0 0 48 48" width="48px" height="48px"><path d="M 11.5 6 C 8.4802259 6 6 8.4802259 6 11.5 L 6 36.5 C 6 39.519774 8.4802259 42 11.5 42 L 26.238281 42 A 1.50015 1.50015 0 1 0 26.238281 39 L 11.5 39 C 10.101774 39 9 37.898226 9 36.5 L 9 11.5 C 9 10.101774 10.101774 9 11.5 9 L 13.1875 9 A 1.50015 1.50015 0 1 0 13.1875 6 L 11.5 6 z M 20.654297 6 A 1.50015 1.50015 0 1 0 20.654297 9 L 36.5 9 C 37.898226 9 39 10.101774 39 11.5 L 39 36.5 C 39 37.898226 37.898226 39 36.5 39 L 33.613281 39 A 1.50015 1.50015 0 1 0 33.613281 42 L 36.5 42 C 39.519774 42 42 39.519774 42 36.5 L 42 11.5 C 42 8.4802259 39.519774 6 36.5 6 L 20.654297 6 z M 33.216797 14.978516 A 1.50015 1.50015 0 0 0 31.738281 16.5 L 31.738281 21 L 30.738281 21 C 27.442416 21 24.738281 23.704135 24.738281 27 C 24.738281 30.295865 27.442416 33 30.738281 33 L 33.238281 33 A 1.50015 1.50015 0 0 0 34.738281 31.5 L 34.738281 22.748047 A 1.50015 1.50015 0 0 0 34.738281 22.253906 L 34.738281 16.5 A 1.50015 1.50015 0 0 0 33.216797 14.978516 z M 21.755859 14.980469 A 1.50015 1.50015 0 0 0 20.357422 15.869141 L 18.238281 20.435547 L 16.121094 15.869141 A 1.50015 1.50015 0 0 0 14.677734 14.982422 A 1.50015 1.50015 0 0 0 13.400391 17.130859 L 16.585938 24 L 13.400391 30.869141 A 1.50015 1.50015 0 1 0 16.121094 32.130859 L 18.238281 27.564453 L 20.357422 32.130859 A 1.50015 1.50015 0 1 0 23.078125 30.869141 L 19.892578 24 L 23.078125 17.130859 A 1.50015 1.50015 0 0 0 21.755859 14.980469 z M 30.738281 24 L 31.738281 24 L 31.738281 30 L 30.738281 30 C 29.064146 30 27.738281 28.674135 27.738281 27 C 27.738281 25.325865 29.064146 24 30.738281 24 z"/></svg>